<svg t="1751005448053" class="icon" viewBox="0 0 1024 1024" version="1.1" xmlns="http://www.w3.org/2000/svg" p-id="10653" width="200" height="200"><path d="M153.6 160m-12.8 0a12.8 12.8 0 1 0 25.6 0 12.8 12.8 0 1 0-25.6 0Z" fill="#71BFFF" p-id="10654"></path><path d="M192 160m-12.8 0a12.8 12.8 0 1 0 25.6 0 12.8 12.8 0 1 0-25.6 0Z" fill="#71BFFF" p-id="10655"></path><path d="M230.4 160m-12.8 0a12.8 12.8 0 1 0 25.6 0 12.8 12.8 0 1 0-25.6 0Z" fill="#71BFFF" p-id="10656"></path><path d="M938.88 836.48h-844.8a12.8 12.8 0 0 1-12.8-12.8v-716.8a12.8 12.8 0 0 1 12.8-12.8h844.8a12.8 12.8 0 0 1 12.8 12.8v716.8a12.8 12.8 0 0 1-12.8 12.8z m-832-25.6h819.2v-691.2h-819.2z" fill="#71BFFF" p-id="10657"></path><path d="M934.4 230.4H98.944a12.8 12.8 0 0 1 0-25.6H934.4a12.8 12.8 0 0 1 0 25.6z" fill="#71BFFF" p-id="10658"></path><path d="M616.32 318.848L452.096 483.072a1.92 1.92 0 0 0 1.408 3.328h108.8a2.048 2.048 0 0 1 1.92 2.688C498.432 681.6 307.2 712.448 247.808 716.8a3.072 3.072 0 0 0 0 6.016 349.184 349.184 0 0 0 424.96-235.52 1.792 1.792 0 0 1 1.792-1.408h107.776a1.92 1.92 0 0 0 1.408-3.328L619.136 318.848a2.048 2.048 0 0 0-2.816 0z" fill="#B6E2FF" p-id="10659"></path><path d="M850.688 473.6h-337.92a12.8 12.8 0 0 1-8.96-21.888l168.832-168.96a12.8 12.8 0 0 1 18.176 0l168.96 168.96a12.8 12.8 0 0 1 2.688 13.952 12.8 12.8 0 0 1-11.776 7.936z m-307.2-25.6H819.2L681.728 310.016z" fill="#71BFFF" p-id="10660"></path><path d="M402.56 722.56a362.368 362.368 0 0 1-112.128-17.792A12.8 12.8 0 0 1 281.6 691.2a12.8 12.8 0 0 1 12.8-10.752h5.76a336.64 336.64 0 0 0 316.928-223.872 12.8 12.8 0 0 1 12.032-8.576h107.648a12.8 12.8 0 0 1 10.24 5.12 12.8 12.8 0 0 1 2.048 11.392 363.776 363.776 0 0 1-346.496 258.048zM381.44 696.32c7.04 0 14.08 0.64 21.12 0.64A338.176 338.176 0 0 0 719.104 473.6h-81.024A362.368 362.368 0 0 1 381.44 696.32zM265.216 516.096a37.12 37.12 0 0 1 13.824 28.032h-18.688a25.6 25.6 0 0 0-8.96-15.36 31.232 31.232 0 0 0-19.072-4.736 36.736 36.736 0 0 0-16.64 3.072 12.8 12.8 0 0 0-7.04 12.032 12.8 12.8 0 0 0 8.064 11.776 160.896 160.896 0 0 0 19.712 7.04 171.52 171.52 0 0 1 30.208 11.392A27.52 27.52 0 0 1 281.6 594.176a28.928 28.928 0 0 1-12.032 24.576 58.496 58.496 0 0 1-34.304 8.832 57.856 57.856 0 0 1-33.28-8.192 39.552 39.552 0 0 1-15.744-32.128H204.8a27.008 27.008 0 0 0 9.344 18.688 36.48 36.48 0 0 0 20.992 4.992A40.448 40.448 0 0 0 256 606.72a12.8 12.8 0 0 0 7.424-11.392 16.384 16.384 0 0 0-10.88-14.592 215.68 215.68 0 0 0-22.4-7.552 180.352 180.352 0 0 1-27.136-9.984 25.6 25.6 0 0 1-12.8-23.296 27.52 27.52 0 0 1 12.8-24.064 52.352 52.352 0 0 1 30.72-8.32 52.992 52.992 0 0 1 31.488 8.576z" fill="#71BFFF" p-id="10661"></path><path d="M381.056 509.952v16.256h-64v31.872h60.416v16.256h-60.8v34.816H384v16.128h-86.144v-115.2zM494.464 524.8a62.08 62.08 0 0 1 14.464 42.88 62.336 62.336 0 0 1-14.464 42.88 53.504 53.504 0 0 1-41.728 16.64 52.352 52.352 0 0 1-41.6-17.152 61.44 61.44 0 0 1-14.336-42.24A62.08 62.08 0 0 1 411.136 524.8a51.2 51.2 0 0 1 41.6-17.28A52.736 52.736 0 0 1 494.464 524.8z m-69.504 11.52a57.088 57.088 0 0 0 0 62.592 34.048 34.048 0 0 0 27.776 11.904 34.56 34.56 0 0 0 27.648-11.392 48.64 48.64 0 0 0 9.472-31.744 49.664 49.664 0 0 0-9.472-32 38.4 38.4 0 0 0-55.424 0z" fill="#71BFFF" p-id="10662"></path></svg>